<svg width="24" height="24" viewBox="0 0 24 24" fill="none" xmlns="http://www.w3.org/2000/svg">
<path d="M14.7037 4.96875H19.0312V9.29625C19.0306 9.58258 18.9164 9.85696 18.7137 10.0592C18.511 10.2614 18.2363 10.375 17.95 10.375H14.7C14.4149 10.373 14.142 10.2586 13.9407 10.0566C13.7394 9.85465 13.626 9.5814 13.625 9.29625V6.04625C13.626 5.76057 13.74 5.48689 13.9421 5.28499C14.1443 5.0831 14.4181 4.96941 14.7037 4.96875Z" stroke="#0D0D0D" strokeMiterlimit="10" stroke-linecap="round"/>
<path d="M9.29625 4.96875H6.05C5.45284 4.96875 4.96875 5.45284 4.96875 6.05V9.29625C4.96875 9.89341 5.45284 10.3775 6.05 10.3775H9.29625C9.89341 10.3775 10.3775 9.89341 10.3775 9.29625V6.05C10.3775 5.45284 9.89341 4.96875 9.29625 4.96875Z" stroke="#0D0D0D" strokeMiterlimit="10" stroke-linecap="round"/>
<path d="M17.95 13.6225H14.7038C14.1066 13.6225 13.6225 14.1066 13.6225 14.7038V17.95C13.6225 18.5472 14.1066 19.0313 14.7038 19.0313H17.95C18.5472 19.0313 19.0313 18.5472 19.0313 17.95V14.7038C19.0313 14.1066 18.5472 13.6225 17.95 13.6225Z" stroke="#0D0D0D" strokeMiterlimit="10" stroke-linecap="round"/>
<path d="M9.29625 13.6225H6.05C5.45284 13.6225 4.96875 14.1066 4.96875 14.7038V17.95C4.96875 18.5472 5.45284 19.0313 6.05 19.0313H9.29625C9.89341 19.0313 10.3775 18.5472 10.3775 17.95V14.7038C10.3775 14.1066 9.89341 13.6225 9.29625 13.6225Z" stroke="#0D0D0D" strokeMiterlimit="10" stroke-linecap="round"/>
</svg>
