<svg width="24" height="26" viewBox="0 0 24 26" fill="none" xmlns="http://www.w3.org/2000/svg">
<g clip-path="url(#clip0_462_4120)">
<rect y="1" width="24" height="24" rx="12" fill="white"/>
<path d="M12 25C18.6274 25 24 19.6274 24 13C24 6.37258 18.6274 1 12 1C5.37258 1 0 6.37258 0 13C0 19.6274 5.37258 25 12 25Z" fill="#F0F0F0"/>
<path d="M2.48081 5.69385C1.5382 6.92024 0.827434 8.33375 0.413574 9.86933H6.65629L2.48081 5.69385Z" fill="#0052B4"/>
<path d="M23.5868 9.86929C23.1729 8.33375 22.4621 6.92024 21.5196 5.69385L17.3442 9.86929H23.5868Z" fill="#0052B4"/>
<path d="M0.413574 16.1304C0.82748 17.6659 1.53825 19.0794 2.48081 20.3058L6.65615 16.1304H0.413574Z" fill="#0052B4"/>
<path d="M19.306 3.48037C18.0796 2.53776 16.6662 1.82699 15.1306 1.41309V7.65576L19.306 3.48037Z" fill="#0052B4"/>
<path d="M4.69434 22.5191C5.92073 23.4617 7.33424 24.1725 8.86977 24.5864V18.3438L4.69434 22.5191Z" fill="#0052B4"/>
<path d="M8.86973 1.41309C7.3342 1.82699 5.92068 2.53776 4.69434 3.48032L8.86973 7.65571V1.41309Z" fill="#0052B4"/>
<path d="M15.1306 24.5864C16.6662 24.1725 18.0797 23.4617 19.306 22.5191L15.1306 18.3438V24.5864Z" fill="#0052B4"/>
<path d="M17.3442 16.1304L21.5196 20.3058C22.4621 19.0795 23.1729 17.6659 23.5868 16.1304H17.3442Z" fill="#0052B4"/>
<path d="M23.8984 11.4348H13.5653H13.5653V1.10158C13.0529 1.03487 12.5305 1 12 1C11.4694 1 10.9471 1.03487 10.4348 1.10158V11.4347V11.4347H0.101578C0.034875 11.9471 0 12.4695 0 13C0 13.5306 0.034875 14.0529 0.101578 14.5652H10.4347H10.4347V24.8984C10.9471 24.9651 11.4694 25 12 25C12.5305 25 13.0529 24.9652 13.5652 24.8984V14.5653V14.5653H23.8984C23.9651 14.0529 24 13.5306 24 13C24 12.4695 23.9651 11.9471 23.8984 11.4348Z" fill="#D80027"/>
<path d="M15.1305 16.1304L20.4853 21.4852C20.7315 21.239 20.9665 20.9817 21.1906 20.7148L16.6062 16.1304H15.1305Z" fill="#D80027"/>
<path d="M8.86955 16.1304H8.86945L3.51469 21.4851C3.76087 21.7314 4.01826 21.9664 4.28508 22.1905L8.86955 17.6059V16.1304Z" fill="#D80027"/>
<path d="M8.86954 9.8696V9.86951L3.51473 4.51465C3.26845 4.76084 3.03351 5.01823 2.80936 5.28504L7.39387 9.8696H8.86954Z" fill="#D80027"/>
<path d="M15.1305 9.8698L20.4853 4.5149C20.2391 4.26862 19.9817 4.03368 19.7149 3.80957L15.1305 8.39409V9.8698Z" fill="#D80027"/>
</g>
<defs>
<clipPath id="clip0_462_4120">
<rect y="1" width="24" height="24" rx="12" fill="white"/>
</clipPath>
</defs>
</svg>
