<svg width="24" height="24" viewBox="0 0 24 24" fill="none" xmlns="http://www.w3.org/2000/svg">
<path d="M12.0162 5.75024V19.799M12.0162 19.799C12.0163 19.8053 12.015 19.8115 12.0125 19.8172C12.0099 19.8229 12.0061 19.828 12.0013 19.832C11.9965 19.8361 11.9909 19.8391 11.9848 19.8407C11.9788 19.8423 11.9724 19.8426 11.9662 19.8415C11.3737 19.7327 5.68999 18.6865 4.89124 18.4765C2.51624 17.8515 2.51624 16.2015 2.51624 15.1015V7.75024C2.51624 7.21981 2.72695 6.7111 3.10202 6.33603C3.4771 5.96096 3.9858 5.75024 4.51624 5.75024H5.43249M12.0162 19.799C12.0159 19.8052 12.017 19.8114 12.0195 19.8171C12.0219 19.8229 12.0256 19.8279 12.0303 19.832C12.035 19.8361 12.0406 19.8391 12.0466 19.8407C12.0526 19.8424 12.0589 19.8426 12.065 19.8415C12.6575 19.7327 18.3412 18.6865 19.1412 18.4765C21.5162 17.8515 21.5162 16.2015 21.5162 15.1015V7.75024C21.5162 7.21981 21.3055 6.7111 20.9304 6.33603C20.5554 5.96096 20.0467 5.75024 19.5162 5.75024H18.4312M16.265 11.3202C15.478 11.5631 14.7227 11.8988 14.015 12.3202M16.265 8.82019C15.478 9.06313 14.7227 9.39882 14.015 9.82019M16.265 6.32019C15.478 6.56313 14.7227 6.89883 14.015 7.32019M10.015 12.3202C9.30731 11.8988 8.552 11.5631 7.765 11.3202M10.015 9.82019C9.30731 9.39882 8.552 9.06313 7.765 8.82019M10.015 7.32019C9.30731 6.89883 8.552 6.56313 7.765 6.32019M14.925 3.55406C14.5761 3.5955 14.2351 3.68729 13.9125 3.82656C12.5275 4.44406 12.0187 5.63406 12.0187 6.60156V19.1553C12.0188 19.1635 12.0212 19.1716 12.0256 19.1785C12.03 19.1855 12.0363 19.1911 12.0438 19.1946C12.0512 19.1981 12.0595 19.1995 12.0677 19.1985C12.0758 19.1975 12.0836 19.1942 12.09 19.1891C12.3462 18.9641 13.2425 18.1966 13.9325 17.8516C14.9325 17.3516 15.4325 17.2266 16.5575 16.9766C17.6625 16.7266 18.4325 15.9766 18.4325 14.7266V3.10156L14.925 3.55406ZM9.80625 3.47656C8.43124 3.10156 7.93124 3.10156 7.93124 3.10156C7.10624 3.10156 5.43124 3.22656 5.43124 5.47656V14.7266C5.43124 15.5516 5.69499 16.7916 6.93124 17.1016C7.93125 17.3516 8.55624 17.4766 9.55625 17.7266C10.8225 18.0428 11.6812 19.1266 12.0175 19.2516V6.47656C11.9312 5.23406 11.1812 3.85156 9.80625 3.47656Z" stroke="#0D0D0D" stroke-miterlimit="10" stroke-linecap="round"/>
</svg>
