<svg width="208" height="60" viewBox="0 0 208 60" fill="none" xmlns="http://www.w3.org/2000/svg">
<g clipPath="url(#clip0_1_62158)">
<path d="M19.1947 2.92089C26.5615 0.000191927 35.1425 0.20213 42.313 3.59448C40.2697 3.28571 38.1915 3.51852 36.1691 3.85864C30.6762 4.89056 25.4562 7.46142 21.3761 11.2808C17.4639 15.1061 14.7223 20.1815 13.948 25.6117C13.4358 29.4593 13.9106 33.495 15.6463 36.9971C17.4348 40.6715 20.5831 43.6852 24.3777 45.2405C28.0342 46.7797 32.2756 46.7627 35.9792 45.3888C41.5363 43.3602 45.5291 37.8825 45.9857 32.0302C46.273 28.1946 45.3351 24.1143 42.7446 21.1724C40.2716 18.2928 36.6547 16.7066 33.0352 15.8037C32.8412 12.2528 34.523 8.74484 37.19 6.43552C38.6711 5.10702 40.5092 4.2602 42.41 3.7183L42.5543 3.66874C47.9955 6.2643 52.6188 10.545 55.5646 15.8002C58.0885 20.2743 59.4048 25.4301 59.2745 30.5658C59.2496 37.2069 56.7541 43.7823 52.4764 48.8602C48.4313 53.7029 42.7736 57.1863 36.6074 58.5812C30.4246 60.0002 23.7727 59.3881 17.9864 56.7743C12.3246 54.2588 7.52784 49.886 4.47637 44.5071C1.938 40.0371 0.595178 34.8832 0.706614 29.7415C0.71872 23.3351 3.00565 16.978 6.99859 11.9683C10.188 7.96812 14.4192 4.78743 19.1947 2.92089Z" fill="#E60000"/>
<path d="M36.1691 3.8586C38.1914 3.51848 40.2697 3.28582 42.313 3.59459L42.6063 3.644L42.41 3.7181C40.5092 4.26031 38.6711 5.10697 37.19 6.43563C34.523 8.7448 32.8412 12.2529 33.0352 15.8039C36.6545 16.7066 40.2716 18.2926 42.7446 21.1724C45.3351 24.1142 46.273 28.1945 45.9857 32.0301C45.5291 37.8823 41.5363 43.3601 35.9792 45.3888C32.2756 46.7627 28.0342 46.7795 24.3777 45.2406C20.583 43.6851 17.4348 40.6716 15.6463 36.9971C13.9106 33.4949 13.4358 29.4593 13.9482 25.6116C14.7223 20.1815 17.4638 15.106 21.3762 11.2808C25.4562 7.46138 30.6762 4.89052 36.1691 3.8586Z" fill="white"/>
</g>
<path d="M77.36 41L70 19.656H72.688L78.512 37.256L84.304 19.656H86.864L79.6 41H77.36ZM89.339 41V19.656H94.555C95.3657 19.656 96.187 19.7307 97.019 19.88C97.8723 20.008 98.6617 20.2533 99.387 20.616C100.496 21.192 101.435 21.96 102.203 22.92C102.971 23.8587 103.526 24.9787 103.867 26.28C104.208 27.56 104.379 28.808 104.379 30.024C104.379 32.0933 104.07 33.8747 103.451 35.368C102.854 36.8613 102.032 38.0453 100.987 38.92C99.963 39.7947 98.939 40.36 97.915 40.616C96.891 40.872 95.771 41 94.555 41H89.339ZM91.771 38.792H94.267C95.547 38.792 96.571 38.6427 97.339 38.344C98.235 37.9387 99.0457 37.3413 99.771 36.552C100.518 35.7413 101.04 34.7707 101.339 33.64C101.638 32.5093 101.787 31.3467 101.787 30.152C101.787 28.296 101.52 26.8027 100.987 25.672C100.454 24.5413 99.7177 23.656 98.779 23.016C98.1817 22.6107 97.4883 22.3227 96.699 22.152C95.9097 21.96 95.1417 21.864 94.395 21.864H91.771V38.792ZM107.933 41V19.656H110.365V38.792H119.773V41H107.933ZM122.839 41V19.656H129.175C131.5 19.656 133.218 20.2 134.327 21.288C135.458 22.376 136.023 23.9867 136.023 26.12C136.023 28.1893 135.426 29.7573 134.231 30.824C133.058 31.8907 131.34 32.424 129.079 32.424H125.271V41H122.839ZM125.271 30.184H129.239C130.476 30.184 131.479 29.864 132.247 29.224C133.036 28.584 133.431 27.528 133.431 26.056C133.431 24.584 133.058 23.5173 132.311 22.856C131.586 22.1947 130.551 21.864 129.207 21.864H125.271V30.184Z" fill="#0D0D0D"/>
<defs>
<clipPath id="clip0_1_62158">
<rect width="60" height="60" fill="white"/>
</clipPath>
</defs>
</svg>
