<svg width="24" height="24" viewBox="0 0 24 24" fill="none" xmlns="http://www.w3.org/2000/svg">
<path d="M14.4725 12.3062C14.4725 12.0301 14.2486 11.8062 13.9725 11.8062C13.6963 11.8062 13.4725 12.0301 13.4725 12.3062H14.4725ZM7.97247 21.5062L7.64501 21.8841C7.83294 22.047 8.11201 22.047 8.29994 21.8841L7.97247 21.5062ZM7.97247 6.80624C8.24862 6.80624 8.47247 6.58239 8.47247 6.30624C8.47247 6.0301 8.24862 5.80624 7.97247 5.80624V6.80624ZM7.94624 5.80624C7.6701 5.80624 7.44624 6.0301 7.44624 6.30624C7.44624 6.58239 7.6701 6.80624 7.94624 6.80624V5.80624ZM13.4725 12.3336C13.4724 12.6098 13.6962 12.8337 13.9724 12.8337C14.2485 12.8338 14.4724 12.61 14.4725 12.3338L13.4725 12.3336ZM8.09375 21.0062C7.81761 21.0062 7.59375 21.2301 7.59375 21.5062C7.59375 21.7824 7.81761 22.0062 8.09375 22.0062V21.0062ZM18.39 15.5287L18.2411 16.006L18.2412 16.0061L18.39 15.5287ZM18.2175 10.8587L18.3174 11.3486C18.4017 11.3314 18.48 11.2928 18.545 11.2365L18.2175 10.8587ZM22 5.82498C22 5.54884 21.7762 5.32498 21.5 5.32498C21.2239 5.32498 21 5.54884 21 5.82498H22ZM14.935 5.82498H14.435H14.935ZM18.2175 3.04248C18.4937 3.04248 18.7175 2.81862 18.7175 2.54248C18.7175 2.26634 18.4937 2.04248 18.2175 2.04248V3.04248ZM18.2025 2.04248C17.9264 2.04248 17.7025 2.26634 17.7025 2.54248C17.7025 2.81862 17.9264 3.04248 18.2025 3.04248V2.04248ZM21 5.83998C21 6.11612 21.2239 6.33998 21.5 6.33998C21.7761 6.33998 22 6.11612 22 5.83998H21ZM10.2725 12.3062C10.2725 13.5764 9.24275 14.6062 7.9725 14.6062V15.6062C9.79504 15.6062 11.2725 14.1287 11.2725 12.3062H10.2725ZM7.9725 14.6062C6.70224 14.6062 5.6725 13.5764 5.6725 12.3062H4.6725C4.6725 14.1287 6.14996 15.6062 7.9725 15.6062V14.6062ZM5.6725 12.3062C5.6725 11.0359 6.70224 10.0062 7.9725 10.0062V9.00616C6.14996 9.00616 4.6725 10.4836 4.6725 12.3062H5.6725ZM7.9725 10.0062C9.24275 10.0062 10.2725 11.0359 10.2725 12.3062H11.2725C11.2725 10.4836 9.79504 9.00616 7.9725 9.00616V10.0062ZM13.4725 12.3062C13.4725 13.1892 13.1384 14.1793 12.5942 15.1951C12.0533 16.2049 11.3259 17.2011 10.5884 18.0862C9.85219 18.9696 9.11459 19.7319 8.56041 20.2737C8.28363 20.5444 8.05336 20.7593 7.8929 20.906C7.81269 20.9793 7.74997 21.0356 7.70767 21.0732C7.68653 21.092 7.67049 21.1061 7.65992 21.1154C7.65463 21.12 7.65072 21.1234 7.64822 21.1256C7.64697 21.1267 7.64607 21.1275 7.64554 21.1279C7.64527 21.1282 7.64509 21.1283 7.645 21.1284C7.64496 21.1284 7.64496 21.1284 7.64494 21.1285C7.64496 21.1284 7.64501 21.1284 7.97247 21.5062C8.29994 21.8841 8.30003 21.884 8.30015 21.8839C8.30022 21.8838 8.30036 21.8837 8.30049 21.8836C8.30077 21.8834 8.30114 21.883 8.3016 21.8827C8.30251 21.8819 8.30379 21.8807 8.30542 21.8793C8.30869 21.8765 8.31338 21.8724 8.31945 21.867C8.33159 21.8564 8.34924 21.8408 8.37204 21.8206C8.41763 21.78 8.48382 21.7207 8.56767 21.644C8.73534 21.4907 8.97381 21.2681 9.25953 20.9887C9.83035 20.4306 10.5928 19.6429 11.3566 18.7263C12.1191 17.8114 12.8916 16.7576 13.4757 15.6674C14.0565 14.5832 14.4725 13.4233 14.4725 12.3062H13.4725ZM7.97247 21.5062C8.29994 21.1284 8.29999 21.1284 8.30001 21.1285C8.29999 21.1284 8.29999 21.1284 8.29995 21.1284C8.29986 21.1283 8.29968 21.1282 8.29941 21.1279C8.29887 21.1275 8.29798 21.1267 8.29673 21.1256C8.29423 21.1234 8.29031 21.12 8.28503 21.1154C8.27446 21.1061 8.25842 21.092 8.23727 21.0732C8.19497 21.0356 8.13226 20.9793 8.05205 20.906C7.89159 20.7593 7.66131 20.5444 7.38453 20.2737C6.83035 19.7319 6.09275 18.9696 5.35658 18.0862C4.61906 17.2011 3.89164 16.2049 3.35071 15.1951C2.80653 14.1793 2.47247 13.1892 2.47247 12.3062H1.47247C1.47247 13.4233 1.88841 14.5832 2.46923 15.6674C3.05331 16.7576 3.82588 17.8114 4.58836 18.7263C5.35219 19.6429 6.11459 20.4306 6.68541 20.9887C6.97113 21.2681 7.20961 21.4907 7.37728 21.644C7.46113 21.7207 7.52732 21.78 7.57291 21.8206C7.59571 21.8408 7.61336 21.8564 7.62549 21.867C7.63156 21.8724 7.63625 21.8765 7.63952 21.8793C7.64116 21.8807 7.64243 21.8819 7.64335 21.8827C7.64381 21.883 7.64418 21.8834 7.64445 21.8836C7.64459 21.8837 7.64473 21.8838 7.6448 21.8839C7.64491 21.884 7.64501 21.8841 7.97247 21.5062ZM2.47247 12.3062C2.47247 10.8476 3.05194 9.44861 4.08339 8.41716L3.37628 7.71005C2.15729 8.92904 1.47247 10.5823 1.47247 12.3062H2.47247ZM4.08339 8.41716C5.11484 7.38571 6.51378 6.80624 7.97247 6.80624V5.80624C6.24857 5.80624 4.59527 6.49106 3.37628 7.71005L4.08339 8.41716ZM7.94624 6.80624C8.67206 6.80624 9.39076 6.94922 10.0613 7.22701L10.444 6.30315C9.65215 5.97509 8.8034 5.80624 7.94624 5.80624V6.80624ZM10.0613 7.22701C10.7319 7.50481 11.3411 7.91197 11.8543 8.42525L12.5615 7.71822C11.9554 7.11206 11.2359 6.63121 10.444 6.30315L10.0613 7.22701ZM11.8543 8.42525C12.3675 8.93853 12.7745 9.54787 13.0522 10.2185L13.9761 9.83594C13.6482 9.04398 13.1675 8.32438 12.5615 7.71822L11.8543 8.42525ZM13.0522 10.2185C13.3298 10.8891 13.4726 11.6078 13.4725 12.3336L14.4725 12.3338C14.4727 11.4767 14.304 10.6279 13.9761 9.83594L13.0522 10.2185ZM8.09375 22.0062H14.5937V21.0062H8.09375V22.0062ZM14.5937 22.0062C16.7614 22.0062 18.3805 21.7035 19.524 21.1996C20.669 20.695 21.3813 19.9652 21.6184 19.1028C21.8557 18.2397 21.5824 17.369 21.0193 16.6609C20.4569 15.9536 19.5873 15.3782 18.5388 15.0514L18.2412 16.0061C19.1296 16.283 19.8178 16.7566 20.2366 17.2833C20.6548 17.8092 20.7862 18.3574 20.6541 18.8377C20.5219 19.3188 20.0907 19.857 19.1207 20.2845C18.1492 20.7127 16.6818 21.0062 14.5937 21.0062V22.0062ZM18.5389 15.0514C17.774 14.8127 17.3149 14.4678 17.0581 14.1191C16.8039 13.774 16.7222 13.3918 16.7676 13.0183C16.8618 12.2436 17.5031 11.5148 18.3174 11.3486L18.1176 10.3688C16.8732 10.6227 15.92 11.7044 15.7749 12.8975C15.7007 13.508 15.838 14.149 16.2529 14.7122C16.6652 15.2718 17.3254 15.7203 18.2411 16.006L18.5389 15.0514ZM19.25 5.82498C19.25 6.39521 18.7877 6.85748 18.2175 6.85748V7.85748C19.34 7.85748 20.25 6.9475 20.25 5.82498H19.25ZM18.2175 6.85748C17.6473 6.85748 17.185 6.39521 17.185 5.82498H16.185C16.185 6.9475 17.095 7.85748 18.2175 7.85748V6.85748ZM17.185 5.82498C17.185 5.25475 17.6473 4.79248 18.2175 4.79248V3.79248C17.095 3.79248 16.185 4.70246 16.185 5.82498H17.185ZM18.2175 4.79248C18.7877 4.79248 19.25 5.25475 19.25 5.82498H20.25C20.25 4.70246 19.34 3.79248 18.2175 3.79248V4.79248ZM21 5.82498C21 6.2551 20.8358 6.75848 20.5464 7.29879C20.2602 7.83302 19.8725 8.36511 19.4746 8.84255C19.0782 9.31837 18.6802 9.72971 18.3808 10.0225C18.2314 10.1686 18.1073 10.2844 18.0212 10.3632C17.9781 10.4026 17.9446 10.4326 17.9222 10.4525C17.911 10.4625 17.9026 10.4699 17.8971 10.4746C17.8944 10.477 17.8925 10.4787 17.8913 10.4798C17.8907 10.4803 17.8903 10.4807 17.8901 10.4808C17.89 10.4809 17.8899 10.481 17.8899 10.481C17.8899 10.481 17.8899 10.481 17.8899 10.481C17.89 10.4809 17.89 10.4809 18.2175 10.8587C18.545 11.2365 18.5451 11.2365 18.5452 11.2364C18.5452 11.2363 18.5453 11.2363 18.5454 11.2362C18.5456 11.236 18.5458 11.2358 18.5461 11.2355C18.5467 11.235 18.5475 11.2343 18.5485 11.2335C18.5504 11.2318 18.5532 11.2294 18.5567 11.2263C18.5637 11.2202 18.5737 11.2113 18.5866 11.1999C18.6122 11.1771 18.6492 11.1439 18.6959 11.1012C18.7893 11.0158 18.9216 10.8923 19.08 10.7375C19.396 10.4284 19.8187 9.99172 20.2429 9.4827C20.6657 8.9753 21.0986 8.38576 21.4279 7.77097C21.7539 7.16226 22 6.48923 22 5.82498H21ZM18.2175 10.8587C18.545 10.4809 18.545 10.4809 18.5451 10.481C18.5451 10.481 18.5451 10.481 18.5451 10.481C18.5451 10.481 18.545 10.4809 18.5449 10.4808C18.5447 10.4807 18.5443 10.4803 18.5437 10.4798C18.5425 10.4787 18.5406 10.477 18.5379 10.4747C18.5324 10.4699 18.524 10.4625 18.5128 10.4525C18.4904 10.4326 18.4569 10.4026 18.4139 10.3632C18.3277 10.2844 18.2036 10.1686 18.0542 10.0225C17.7548 9.72971 17.3569 9.31837 16.9604 8.84255C16.5626 8.36511 16.1748 7.83302 15.8887 7.29879C15.5992 6.75849 15.435 6.2551 15.435 5.82498H14.435C14.435 6.48923 14.6811 7.16225 15.0072 7.77097C15.3365 8.38575 15.7693 8.9753 16.1921 9.4827C16.6163 9.99172 17.039 10.4284 17.355 10.7375C17.5134 10.8923 17.6457 11.0158 17.7391 11.1012C17.7858 11.1439 17.8228 11.1771 17.8484 11.1999C17.8613 11.2113 17.8713 11.2202 17.8783 11.2263C17.8818 11.2294 17.8845 11.2318 17.8865 11.2335C17.8875 11.2343 17.8883 11.235 17.8889 11.2355C17.8892 11.2358 17.8894 11.236 17.8896 11.2362C17.8897 11.2363 17.8898 11.2363 17.8898 11.2364C17.8899 11.2365 17.89 11.2365 18.2175 10.8587ZM15.435 5.82498C15.435 5.08702 15.7282 4.37928 16.25 3.85746L15.5429 3.15035C14.8335 3.85971 14.435 4.8218 14.435 5.82498H15.435ZM16.25 3.85746C16.7718 3.33564 17.4796 3.04248 18.2175 3.04248V2.04248C17.2143 2.04248 16.2522 2.44099 15.5429 3.15035L16.25 3.85746ZM18.2025 3.04248C18.9444 3.04248 19.656 3.33722 20.1806 3.86185L20.8877 3.15474C20.1756 2.44257 19.2097 2.04248 18.2025 2.04248V3.04248ZM20.1806 3.86185C20.7053 4.38648 21 5.09804 21 5.83998H22C22 4.83282 21.5999 3.86691 20.8877 3.15474L20.1806 3.86185Z" fill="#0D0D0D"/>
</svg>
