<svg width="24" height="24" viewBox="0 0 24 24" fill="none" xmlns="http://www.w3.org/2000/svg">
<path fill-rule="evenodd" clip-rule="evenodd" d="M2 9.5C2 5.35786 5.35786 2 9.5 2C13.6421 2 17 5.35786 17 9.5C17 13.6421 13.6421 17 9.5 17C5.35786 17 2 13.6421 2 9.5ZM16 9.5C16 5.91015 13.0899 3 9.5 3C5.91015 3 3 5.91015 3 9.5C3 13.0899 5.91015 16 9.5 16C13.0899 16 16 13.0899 16 9.5Z" fill="#4A4D4E"/>
<path d="M14.0952 14.0952C14.284 13.9064 14.5861 13.9002 14.7824 14.0763L14.8023 14.0952L21.8536 21.1464C22.0488 21.3417 22.0488 21.6583 21.8536 21.8536C21.6648 22.0423 21.3627 22.0486 21.1664 21.8724L21.1464 21.8536L14.0952 14.8023C13.8999 14.607 13.8999 14.2905 14.0952 14.0952Z" fill="#4A4D4E"/>
</svg>
