<svg width="24" height="26" viewBox="0 0 24 26" fill="none" xmlns="http://www.w3.org/2000/svg">
<path d="M4.17751 22C4.17751 22.2762 4.40137 22.5 4.67751 22.5C4.95366 22.5 5.17751 22.2762 5.17751 22H4.17751ZM18.8225 22C18.8225 22.2762 19.0464 22.5 19.3225 22.5C19.5987 22.5 19.8225 22.2762 19.8225 22H18.8225ZM16.1337 8.65865H15.6337H16.1337ZM12 4.5249V4.0249V4.5249ZM16.1337 4.5249H16.6337V4.0249H16.1337V4.5249ZM5.17751 22C5.17751 17.3235 8.31467 13.6963 12 13.6963V12.6963C7.59786 12.6963 4.17751 16.9515 4.17751 22H5.17751ZM12 13.6963C15.6854 13.6963 18.8225 17.3235 18.8225 22H19.8225C19.8225 16.9515 16.4022 12.6963 12 12.6963V13.6963ZM15.6337 8.65865C15.6337 9.37734 15.4206 10.0799 15.0214 10.6775L15.8528 11.233C16.362 10.471 16.6337 9.57512 16.6337 8.65865H15.6337ZM15.0214 10.6775C14.6221 11.275 14.0546 11.7408 13.3906 12.0158L13.7733 12.9397C14.62 12.589 15.3437 11.995 15.8528 11.233L15.0214 10.6775ZM13.3906 12.0158C12.7266 12.2908 11.996 12.3628 11.2911 12.2226L11.096 13.2034C11.9949 13.3822 12.9265 13.2904 13.7733 12.9397L13.3906 12.0158ZM11.2911 12.2226C10.5862 12.0824 9.93873 11.7363 9.43055 11.2281L8.72344 11.9352C9.37148 12.5833 10.1971 13.0246 11.096 13.2034L11.2911 12.2226ZM9.43055 11.2281C8.92236 10.7199 8.57627 10.0724 8.43606 9.36756L7.45528 9.56265C7.63407 10.4615 8.0754 11.2872 8.72344 11.9352L9.43055 11.2281ZM8.43606 9.36756C8.29586 8.66268 8.36782 7.93206 8.64285 7.26808L7.71897 6.88539C7.36825 7.7321 7.27649 8.66379 7.45528 9.56265L8.43606 9.36756ZM8.64285 7.26808C8.91788 6.6041 9.38362 6.03658 9.98119 5.6373L9.42562 4.80583C8.6636 5.31499 8.06968 6.03869 7.71897 6.88539L8.64285 7.26808ZM9.98119 5.6373C10.5788 5.23802 11.2813 5.0249 12 5.0249V4.0249C11.0835 4.0249 10.1876 4.29667 9.42562 4.80583L9.98119 5.6373ZM12 5.0249H16.1337V4.0249H12V5.0249ZM15.6337 4.5249V8.65865H16.6337V4.5249H15.6337Z" fill="#0D0D0D"/>
</svg>
